<svg xmlns="http://www.w3.org/2000/svg" width="187.3" height="165.1"><rect id="backgroundrect" width="100%" height="100%" x="0" y="0" fill="none" stroke="none"/>

<g class="currentLayer" style=""><title>Layer 1</title><g style="stroke-width: 1;" id="svg_1" class="" stroke="#ffffff" stroke-opacity="1" fill="none">
	<path d="m 16,37.5 c -3.32,0 -6,2.68 -6,6 l 0,86.5 c 0,3.3 2.677,6 6,6 l 152.46,0 c 3.4,0 6,-2.7 6,-6 l 0,-86.5 c 0,-3.32 -2.6,-6 -6,-6 l -38.3,0 1.5,22.75 c 0.1,1.1 -0.9,2 -2,2 l -46.2,0 c -1.1,0 -2.1,-0.9 -2,-2 l 1.5,-22.75 -67,0 z" id="svg_2" stroke="#ffffff" stroke-opacity="1" fill="none" fill-opacity="1"/>
	<path d="m 85.4,28.67 42.2,0 c 1.1,0 1.9,0.89 2,2 l 2,29.58 c 0,1 -1,2 -2,2 l -46.2,0 c -1.1,0 -2.1,-1 -2,-2 l 2,-29.58 c 0,-1.11 0.9,-2 2,-2 z" id="svg_3" stroke="#ffffff" stroke-opacity="1" fill="none" fill-opacity="1"/>
	<path d="m 10.01,62.75 86.62,0" id="svg_4" stroke="#ffffff" stroke-opacity="1" fill="none" fill-opacity="1"/>
	<path d="m 10.31,65.85 74.69,0" id="svg_5" stroke="#ffffff" stroke-opacity="1" fill="none" fill-opacity="1"/>
	<path d="m 103.4,62.75 71.2,0" id="svg_6" stroke="#ffffff" stroke-opacity="1" fill="none" fill-opacity="1"/>
	<path d="m 113.9,65.85 60.4,0" id="svg_7" stroke="#ffffff" stroke-opacity="1" fill="none" fill-opacity="1"/>
	<path d="m 114.5,35.59 a8.9,0 c 1.1,0 2,0.89 2,2 l 0,14.88 c 0,1.11 -0.9,2 -2,2 l -8.9,0 c -1.1,0 -2,-0.89 -2,-2 l 0,-14.88 c 0,-1.11 0.9,-2 2,-2 z" id="svg_8" stroke="#ffffff" stroke-opacity="1" fill="none" fill-opacity="1"/>
	<path d="m 7.833,47.35 a 4.23,4.23 0 0 0 -4.23,4.2 4.23,4.23 0 0 0 4.23,4.2 4.23,4.23 0 0 0 2.167,-0.6 l 0,-7.2 a 4.23,4.23 0 0 0 -2.167,-0.6 z" id="svg_9" stroke="#ffffff" stroke-opacity="1" fill="none" fill-opacity="1"/>
	<path d="m 96.9,28.18 c 0,-3.44 1,-3.96 4.5,-3.96" id="svg_10" stroke="#ffffff" stroke-opacity="1" fill="none" fill-opacity="1"/>
	<path d="m 118.7,28.18 c 0,-3.44 -1,-3.96 -4.5,-3.96" id="svg_11" stroke="#ffffff" stroke-opacity="1" fill="none" fill-opacity="1"/>
	<path d="m 177.3,47.35 a 4.23,4.23 0 0 1 4.3,4.2 4.23,4.23 0 0 1 -4.3,4.2 4.23,4.23 0 0 1 -2.1,-0.6 l 0,-7.2 a 4.23,4.23 0 0 1 2.1,-0.6 z" id="svg_12" stroke="#ffffff" stroke-opacity="1" fill="none" fill-opacity="1"/>
	<path d="m 10.31,125.4 75.41,0" id="svg_13" stroke="#ffffff" stroke-opacity="1" fill="none" fill-opacity="1"/>
	<path d="m 113.1,125.4 61.2,0" id="svg_14" stroke="#ffffff" stroke-opacity="1" fill="none" fill-opacity="1"/>
	<path d="m 10.01,127.8 83.31,0" id="svg_15" stroke="#ffffff" stroke-opacity="1" fill="none" fill-opacity="1"/>
	<path d="m 105.4,127.8 69.2,0" id="svg_16" stroke="#ffffff" stroke-opacity="1" fill="none" fill-opacity="1"/>
	<path d="M 132.4,95.47 A 33,32.94 0 0 1 99.49,128.4 32.94,32.94 0 0 1 66.55,95.47 33,33 0 0 1 99.49,62.53 33,32.94 0 0 1 132.4,95.47 Z" id="svg_17" stroke="#ffffff" stroke-opacity="1" fill="none" fill-opacity="1"/>
	<path d="M 127.7,95.25 A 27.85,27.85 0 0 1 99.8,123.1 27.85,27.85 0 0 1 71.95,95.25 27.85,27.85 0 0 1 99.8,67.4 27.85,27.85 0 0 1 127.7,95.25 Z" id="svg_18" stroke="#ffffff" stroke-opacity="1" fill="none" fill-opacity="1"/>
	<path d="M 119,96.45 A 19.42,19.42 0 0 1 99.6,115.9 19.42,19.42 0 0 1 80.18,96.45 19.42,19.42 0 0 1 99.6,77.03 19.42,19.42 0 0 1 119,96.45 Z" id="svg_19" stroke="#ffffff" stroke-opacity="1" fill="none" fill-opacity="1"/>
	<path d="m 109.6,95.55 a 9.562,9.562 0 0 1 -9.6,9.55 9.562,9.562 0 0 1 -9.56,-9.55 9.562,9.562 0 0 1 9.56,-9.56 9.562,9.562 0 0 1 9.6,9.56 z" id="svg_20" stroke="#ffffff" stroke-opacity="1" fill="none" fill-opacity="1"/>
	<path d="m 67.14,115 a 5.735,5.735 0 0 1 -5.73,5.7 5.735,5.735 0 0 1 -5.74,-5.7 5.735,5.735 0 0 1 5.74,-5.7 5.735,5.735 0 0 1 5.73,5.7 z" id="svg_21" stroke="#ffffff" stroke-opacity="1" fill="none" fill-opacity="1"/>
	<path d="m 56.55,37.56 15.74,0 c 1.11,0 2,0.89 2,2 l 0,0.89 c 0,1.11 -0.89,2 -2,2 l -15.74,0 c -1.11,0 -2,-0.89 -2,-2 l 0,-0.89 c 0,-1.11 0.89,-2 2,-2 z" id="svg_22" stroke="#ffffff" stroke-opacity="1" fill="none" fill-opacity="1"/>
	<path d="m 114.5,35.6 9,0 c 1.1,0 2,0.9 2,2 l 0,14.88 c 0,1 -0.9,2 -2,2 l -9,0 c -1.1,0 -2,-0.9 -2,-2 l 0,-14.88 c 0,-1.11 0.9,-2 2,-2 z" id="svg_23" stroke="#ffffff" stroke-opacity="1" fill="none" fill-opacity="1"/>
</g></g></svg>