<svg id="SvgjsSvg1001" width="288" height="288" xmlns="http://www.w3.org/2000/svg" version="1.1" xmlns:xlink="http://www.w3.org/1999/xlink" xmlns:svgjs="http://svgjs.com/svgjs"><defs id="SvgjsDefs1002"></defs><g id="SvgjsG1008"><svg xmlns="http://www.w3.org/2000/svg" width="288" height="288" version="1.0" viewBox="0 0 512 512"><g transform="matrix(.1 0 0 -.1 0 512)" fill="#ffd2e4" class="color000 svgShape"><path d="M1609 4350 c-46 -13 -78 -41 -99 -84 -18 -38 -20 -61 -20 -229 l0-187 -84 0 -83 0 -6 94 c-6 107 -27 160 -79 199 -57 42 -89 47 -318 47 -229 0
-261 -5 -318 -47 -52 -39 -74 -94 -80 -200 l-5 -91 -181 -4 c-197 -4 -227 -11
-280 -64 -59 -59 -56 28 -56 -1482 l0 -1389 23 -44 c16 -29 40 -54 72 -74 l48
-30 2417 0 2417 0 48 30 c32 20 56 45 72 74 l23 44 0 497 c0 560 4 530 -77
530 -74 0 -73 6 -73 -363 l0 -327 -720 0 c-396 0 -720 3 -720 6 0 3 13 24 29
47 46 68 107 196 135 286 85 269 72 580 -36 834 -62 146 -167 298 -276 400
l-51 47 819 0 820 0 0 -348 c0 -394 -2 -382 77 -382 78 0 73 -57 73 794 0 822
2 792 -56 850 -47 47 -88 59 -215 64 l-117 4 -4 92 c-6 134 -49 202 -147 235
-46 15 -710 15 -766 0 -52 -15 -119 -82 -134 -134 -6 -22 -11 -75 -11 -117 l0
-77 -484 -3 c-460 -3 -485 -4 -505 -22 -28 -26 -29 -88 -1 -116 20 -20 33 -20
1129 -20 1077 0 1109 -1 1132 -19 l24 -19 3 -311 3 -311 -942 0 -941 0 -97 36
c-153 58 -263 77 -431 77 -168 0 -278 -19 -431 -77 l-97 -36 -941 0 -942 0 3
311 3 311 24 19 c23 18 55 19 1132 19 1096 0 1109 0 1129 20 28 28 27 90 -1
116 -19 17 -41 19 -205 22 l-184 3 0 198 c0 189 -1 200 -23 232 -12 19 -42 44
-67 57 -40 20 -58 22 -185 21 -77 0 -152 -4 -166 -9z m281 -325 l0 -175 -120
0 -120 0 0 175 0 175 120 0 120 0 0 -175z m-755 -9 c16 -11 20 -30 23 -90 l4
-76 -242 0 -242 0 4 76 c3 60 7 79 23 90 27 20 403 20 430 0z m3415 -6 c16
-16 20 -33 20 -90 l0 -70 -370 0 -370 0 0 70 c0 116 -21 110 370 110 317 0
331 -1 350 -20z m-1784 -1044 c738 -157 1067 -1016 622 -1624 -208 -284 -585
-453 -926 -414 -536 61 -932 497 -932 1027 0 515 384 953 900 1025 83 11 247
5 336 -14z m-1055 -173 c-311 -313 -420 -776 -285 -1205 28 -90 89 -218 135
-285 16 -23 29 -44 29 -47 0 -3 -324 -6 -720 -6 l-720 0 0 810 0 810 819 0
819 0 -77 -77z m88 -1757 c36 -29 88 -68 115 -85 l50 -31 -885 0 c-486 0 -889
4 -896 8 -19 12 -33 60 -33 113 l0 49 791 0 792 0 66 -54z m3171 5 c0 -53 -14
-101 -33 -113 -7 -4 -410 -8 -896 -8 l-884 0 59 38 c32 22 84 60 114 85 l55
47 793 0 792 0 0 -49z" fill="#ffd2e4" class="color000 svgShape"></path><path d="M2380 2805 c-367 -82 -636 -377 -681 -747 -44 -364 148 -719 476
-878 148 -71 211 -85 390 -85 178 1 232 13 380 85 226 110 392 315 456 560 17
67 22 113 22 215 0 102 -5 148 -22 215 -45 172 -146 333 -282 448 -81 69 -233
150 -334 177 -85 24 -320 29 -405 10z m346 -165 c258 -65 451 -259 521 -520
22 -86 22 -244 0 -330 -54 -203 -193 -377 -372 -465 -352 -174 -771 -33 -948
320 -97 193 -97 427 0 620 150 298 483 455 799 375z" fill="#ffd2e4" class="color000 svgShape"></path><path d="M2448 2414c-116-28-224-104-288-204-94-147-94-363 0-510 100-155 294-242 473-212 181 31 326 155 378 323 25 81 25 207 0 288-73 235-322 374-563 315zm249-179c57-29 111-82 145-147 19-36 23-58 23-133 0-101-16-143-81-215-115-127-333-127-448 0-65 72-81 114-81 215 0 99 15 140 76 209 89 102 241 132 366 71zM363 3570c-58-35-68-61-72-197-3-109-1-127 19-167 33-69 77-86 226-86 136 0 173 12 211 69 21 31 23 45 23 169 0 211-22 232-242 232-114 0-138-3-165-20zm247-215l0-75-80 0-80 0 0 75 0 75 80 0 80 0 0-75zM3959 3567c-60-40-70-74-67-222 3-116 5-133 25-161 46-64 52-65 467-62 360 3 376 4 402 24 64 47 69 64 69 207 0 149-11 182-68 217-30 19-53 20-413 20-380 0-381 0-415-23zm741-212l0-75-325 0-325 0 0 75 0 75 325 0 325 0 0-75zM944 3417c-37-32-39-90-5-118 22-18 46-19 365-19l343 0 21 23c27 29 28 77 3 108l-19 24-340 3-340 3-28-24z" fill="#ffd2e4" class="color000 svgShape"></path></g></svg></g></svg>